# xmcd
#
# Track frame offsets:
#	150
#	15937
#	31935
#	45968
#	60268
#	75330
#	89784
#	106176
#	121952
#	140196
#	155515
#	171169
#
# Disc length: 2516 seconds
#
# Revision: 1
# Processed by: cddbd v1.5.2PL0 Copyright (c) Steve Scherf et al.
# Submitted via: EasyCDDAExtractor 7.0.3.1
#
DISCID=8909d20c
DTITLE=Morgan Blanchard - Swamp Pop Man
DYEAR=1900
DGENRE=Cajun
TTITLE0=Fats Domino - Tribute
TTITLE1=You're My Dream Come True
TTITLE2=Jukebox Songs 
TTITLE3=I Love You Too
TTITLE4=You'll Be Too Late
TTITLE5=Swamp Pop Man
TTITLE6=Your Picture
TTITLE7=Shake, Rattle and Roll
TTITLE8=If You Don't Want Me To (The Freeze)
TTITLE9=House Of Memories
TTITLE10=Kidnapper
TTITLE11=I've Got Your Back
EXTD=
EXTT0=
EXTT1=
EXTT2=
EXTT3=
EXTT4=
EXTT5=
EXTT6=
EXTT7=
EXTT8=
EXTT9=
EXTT10=
EXTT11=
PLAYORDER=
